<svg xmlns="http://www.w3.org/2000/svg" width="21" height="19" viewBox="0 0 21 19">
    <g fill="none" fill-rule="evenodd">
        <g fill="#646464" fill-rule="nonzero">
            <g>
                <path d="M.13 7.746c-.786 4.48 2.064 8.825 6.718 10.242.497.077.663-.23.663-.461v-1.538c-2.737.538-3.318-1.23-3.318-1.23-.498-1.076-1.161-1.383-1.161-1.383-.83-.538.083-.538.083-.538.995 0 1.576.922 1.576.922.83 1.384 2.323 1 2.903.769 0-.615.332-1 .581-1.23-2.24-.23-4.563-1-4.563-4.612 0-.923.415-1.768 1.079-2.383-.166-.308-.498-1.23 0-2.46 0 0 .83-.231 2.82.922 1.63-.408 3.348-.408 4.978 0 1.908-1.153 2.737-.922 2.737-.922.498 1.23.166 2.152 0 2.46.747.615 1.079 1.46 1.079 2.46 0 3.535-2.323 4.304-4.563 4.535.415.307.747.769.747 1.691v2.537c0 .23.083.538.663.461 4.654-1.417 7.504-5.761 6.718-10.242C19.085 3.266 14.9-.02 10 0 5.101-.02.915 3.265.13 7.746z" transform="translate(-60.000000, -149.000000) translate(60.945531, 149.299880)"/>
            </g>
        </g>
    </g>
</svg>
