<svg xmlns="http://www.w3.org/2000/svg" width="18" height="18" viewBox="0 0 18 18">
    <g fill="none" fill-rule="evenodd">
        <g fill="#646464" fill-rule="nonzero">
            <g>
                <path d="M18.054 30.7c1.105 0 2 .896 2 2v14c0 1.105-.895 2-2 2h-14c-1.104 0-2-.895-2-2v-14c0-1.104.896-2 2-2h14m-1 16v-5.572c0-1.893-1.395-3.428-3.115-3.428-.813 0-1.76.547-2.218 1.367V37.9H9.054v8.8h2.667v-5.183c0-.81.593-1.472 1.329-1.472.739 0 1.338.659 1.338 1.472V46.7h2.666M5.56 35.7c.826 0 1.495-.67 1.495-1.495 0-.828-.667-1.505-1.495-1.505-.831 0-1.505.674-1.505 1.505 0 .827.677 1.495 1.505 1.495m1.495 10v-8h-3v8h3z" transform="translate(-63.000000, -180.000000) translate(60.945531, 149.299880)"/>
            </g>
        </g>
    </g>
</svg>
